<svg xmlns="http://www.w3.org/2000/svg" xmlns:xlink="http://www.w3.org/1999/xlink" width="750" zoomAndPan="magnify" viewBox="0 0 562.5 378.749984" height="505" preserveAspectRatio="xMidYMid meet" version="1.0"><defs><clipPath id="bbf80396d3"><path d="M 160 273 L 535 273 L 535 378.457031 L 160 378.457031 Z M 160 273 " clip-rule="nonzero"/></clipPath><clipPath id="8c16322feb"><path d="M 297 0.0429688 L 418 0.0429688 L 418 165 L 297 165 Z M 297 0.0429688 " clip-rule="nonzero"/></clipPath><clipPath id="faa4ffcd17"><path d="M 264 0.0429688 L 390 0.0429688 L 390 271 L 264 271 Z M 264 0.0429688 " clip-rule="nonzero"/></clipPath></defs><g clip-path="url(#bbf80396d3)"><path fill="#6f35a5" d="M 429.234375 326.257812 C 429.234375 297.296875 452.671875 273.722656 481.71875 273.722656 C 510.65625 273.722656 534.207031 297.183594 534.207031 326.257812 C 534.207031 355.21875 510.765625 378.792969 481.71875 378.792969 C 452.785156 378.792969 429.234375 355.21875 429.234375 326.257812 Z M 212.894531 378.792969 C 241.828125 378.792969 265.378906 355.332031 265.378906 326.257812 C 265.378906 297.296875 241.941406 273.722656 212.894531 273.722656 C 183.847656 273.722656 160.40625 297.183594 160.40625 326.257812 C 160.40625 355.21875 183.957031 378.792969 212.894531 378.792969 Z M 212.894531 378.792969 " fill-opacity="1" fill-rule="nonzero"/></g><path fill="#97909d" d="M 374.390625 270.019531 C 374.390625 270.019531 369.457031 282.925781 382.464844 282.925781 C 411.851562 282.925781 411.625 300.101562 411.625 300.101562 L 348.261719 300.101562 L 356.109375 270.019531 Z M 374.390625 270.019531 " fill-opacity="1" fill-rule="nonzero"/><path fill="#97909d" d="M 415.550781 336.699219 C 404.335938 307.285156 415.664062 273.386719 443.699219 256.996094 C 471.738281 240.605469 506.84375 247.453125 526.917969 271.589844 Z M 415.550781 336.699219 " fill-opacity="1" fill-rule="nonzero"/><path fill="#6f35a5" d="M 309.566406 234.992188 C 285.679688 277.425781 316.96875 300.101562 316.96875 300.101562 L 383.25 300.101562 C 391.550781 296.960938 409.945312 278.324219 421.945312 250.710938 C 433.945312 223.09375 392.449219 136.433594 392.449219 136.433594 C 409.945312 114.320312 455.589844 124.421875 455.589844 124.421875 L 455.589844 171.457031 L 429.234375 164.046875 L 467.027344 241.503906 L 397.046875 326.257812 L 152.109375 326.257812 L 202.800781 234.992188 Z M 309.566406 234.992188 " fill-opacity="1" fill-rule="nonzero"/><path fill="#e1d5f1" d="M 455.589844 326.257812 C 455.589844 311.777344 467.253906 300.101562 481.71875 300.101562 C 496.1875 300.101562 507.851562 311.777344 507.851562 326.257812 C 507.851562 340.738281 496.1875 352.414062 481.71875 352.414062 C 467.253906 352.414062 455.589844 340.738281 455.589844 326.257812 Z M 212.894531 352.414062 C 227.359375 352.414062 239.023438 340.738281 239.023438 326.257812 C 239.023438 311.777344 227.359375 300.101562 212.894531 300.101562 C 198.425781 300.101562 186.761719 311.777344 186.761719 326.257812 C 186.761719 340.738281 198.425781 352.414062 212.894531 352.414062 Z M 212.894531 352.414062 " fill-opacity="1" fill-rule="nonzero"/><path fill="#97909d" d="M 327.0625 234.992188 L 178.800781 234.992188 L 178.800781 206.480469 L 327.0625 206.480469 Z M 221.191406 249.363281 C 181.265625 249.363281 139.210938 283.824219 139.210938 326.257812 L 283.773438 326.257812 C 283.773438 274.171875 274.128906 249.363281 221.191406 249.363281 Z M 366.429688 131.832031 C 355.664062 126.332031 346.914062 71.886719 314.953125 73.796875 C 282.875 75.589844 269.082031 141.933594 265.378906 159.445312 L 315.0625 164.046875 C 318.765625 145.636719 329.753906 122.066406 329.753906 122.066406 C 329.753906 122.066406 336.148438 153.832031 352.296875 156.640625 C 361.71875 158.210938 379.550781 160.457031 392.894531 162.027344 L 396.148438 138.230469 C 385.269531 136.996094 372.261719 134.75 366.429688 131.832031 Z M 366.429688 131.832031 " fill-opacity="1" fill-rule="nonzero"/><g clip-path="url(#8c16322feb)"><path fill="#e1d5f1" d="M 362.054688 32.261719 C 362.054688 50.109375 347.585938 64.476562 329.867188 64.476562 C 312.035156 64.476562 297.679688 49.996094 297.679688 32.261719 C 297.679688 14.523438 312.035156 0.0429688 329.867188 0.0429688 C 347.585938 0.0429688 362.054688 14.523438 362.054688 32.261719 Z M 413.644531 140.136719 C 413.644531 140.136719 405.792969 139.578125 396.261719 138.34375 L 393.007812 162.140625 C 402.652344 163.261719 409.945312 164.046875 409.945312 164.046875 C 419.140625 155.742188 420.484375 153.945312 413.644531 140.136719 Z M 413.644531 140.136719 " fill-opacity="1" fill-rule="nonzero"/></g><path fill="#e1d5f1" d="M 235.882812 206.480469 L 119.921875 206.480469 L 119.921875 94 L 235.882812 94 Z M 163.324219 241.503906 C 163.324219 239.933594 161.976562 238.585938 160.40625 238.585938 L 71.132812 238.585938 C 69.5625 238.585938 68.21875 239.933594 68.21875 241.503906 C 68.21875 243.078125 69.5625 244.421875 71.132812 244.421875 L 160.40625 244.421875 C 162.089844 244.421875 163.324219 243.078125 163.324219 241.503906 Z M 133.9375 265.414062 C 133.9375 263.84375 132.59375 262.496094 131.023438 262.496094 L -4.34375 262.496094 C -5.914062 262.496094 -7.257812 263.84375 -7.257812 265.414062 C -7.257812 266.988281 -5.914062 268.332031 -4.34375 268.332031 L 131.023438 268.332031 C 132.59375 268.332031 133.9375 267.097656 133.9375 265.414062 Z M 163.324219 306.949219 C 163.324219 305.378906 161.976562 304.03125 160.40625 304.03125 L 49.039062 304.03125 C 47.46875 304.03125 46.125 305.378906 46.125 306.949219 C 46.125 308.519531 47.46875 309.867188 49.039062 309.867188 L 160.40625 309.867188 C 162.089844 309.867188 163.324219 308.519531 163.324219 306.949219 Z M 189.679688 289.214844 C 189.679688 287.640625 188.332031 286.292969 186.761719 286.292969 L 86.722656 286.292969 C 85.152344 286.292969 83.808594 287.640625 83.808594 289.214844 C 83.808594 290.785156 85.152344 292.132812 86.722656 292.132812 L 186.761719 292.132812 C 188.445312 292.132812 189.679688 290.785156 189.679688 289.214844 Z M 108.257812 179.765625 C 108.257812 178.191406 106.910156 176.84375 105.339844 176.84375 L -23.632812 176.84375 C -25.203125 176.84375 -26.550781 178.191406 -26.550781 179.765625 C -26.550781 181.335938 -25.203125 182.683594 -23.632812 182.683594 L 105.226562 182.683594 C 106.910156 182.683594 108.257812 181.335938 108.257812 179.765625 Z M 102.984375 153.945312 C 102.984375 152.375 101.640625 151.027344 100.070312 151.027344 L 14.945312 151.027344 C 13.375 151.027344 12.03125 152.375 12.03125 153.945312 C 12.03125 155.515625 13.375 156.863281 14.945312 156.863281 L 100.070312 156.863281 C 101.640625 156.863281 102.984375 155.515625 102.984375 153.945312 Z M 102.984375 153.945312 " fill-opacity="1" fill-rule="nonzero"/><g clip-path="url(#faa4ffcd17)"><path fill="#6f35a5" d="M 382.242188 20.136719 L 297.679688 33.832031 C 297.679688 33.269531 297.566406 32.820312 297.566406 32.261719 C 297.566406 14.523438 312.035156 0.0429688 329.867188 0.0429688 C 343.4375 0.0429688 354.988281 8.460938 359.699219 20.25 L 381.679688 16.769531 Z M 265.378906 159.445312 C 261.679688 176.957031 266.277344 206.480469 283.773438 206.480469 L 327.0625 206.480469 C 352.859375 206.480469 360.261719 231.402344 349.15625 270.019531 L 377.644531 270.019531 C 391.4375 216.585938 396.035156 200.867188 377.644531 191.664062 C 359.25 182.457031 311.363281 182.457031 315.0625 164.046875 Z M 265.378906 159.445312 " fill-opacity="1" fill-rule="nonzero"/></g></svg>